<mxfile host="app.diagrams.net" modified="2023-11-30T11:52:52.495Z" agent="Mozilla/5.0 (Windows NT 10.0; Win64; x64) AppleWebKit/537.36 (KHTML, like Gecko) Chrome/119.0.0.0 Safari/537.36" version="22.1.5" etag="PpCJ154OOZrn_ft7-AF8" type="github">
  <diagram name="페이지-1" id="vT8XQu6yIzI3gzS4KNXu">
    <mxGraphModel>
      <root>
        <mxCell id="0" />
        <mxCell id="1" parent="0" />
      </root>
    </mxGraphModel>
  </diagram>
</mxfile>
